<?xml version="1.0" encoding="UTF-8" standalone="no"?>
<!-- Created with Inkscape (http://www.inkscape.org/) -->

<svg
   xmlns:dc="http://purl.org/dc/elements/1.1/"
   xmlns:cc="http://creativecommons.org/ns#"
   xmlns:rdf="http://www.w3.org/1999/02/22-rdf-syntax-ns#"
   xmlns:svg="http://www.w3.org/2000/svg"
   xmlns="http://www.w3.org/2000/svg"
   xmlns:sodipodi="http://sodipodi.sourceforge.net/DTD/sodipodi-0.dtd"
   xmlns:inkscape="http://www.inkscape.org/namespaces/inkscape"
   width="203.22887mm"
   height="146.90735mm"
   viewBox="0 0 720.10228 520.53785"
   id="svg2"
   version="1.1"
   inkscape:version="0.91 r13725"
   sodipodi:docname="ll-logo-white.svg">
  <defs
     id="defs4" />
  <sodipodi:namedview
     id="base"
     pagecolor="#ffffff"
     bordercolor="#666666"
     borderopacity="1.0"
     inkscape:pageopacity="0.0"
     inkscape:pageshadow="2"
     inkscape:zoom="0.7"
     inkscape:cx="832.76008"
     inkscape:cy="301.82418"
     inkscape:document-units="px"
     inkscape:current-layer="layer1"
     showgrid="false"
     fit-margin-top="0"
     fit-margin-left="0"
     fit-margin-right="0"
     fit-margin-bottom="0"
     inkscape:window-width="1920"
     inkscape:window-height="995"
     inkscape:window-x="0"
     inkscape:window-y="28"
     inkscape:window-maximized="1" />
  <metadata
     id="metadata7">
    <rdf:RDF>
      <cc:Work
         rdf:about="">
        <dc:format>image/svg+xml</dc:format>
        <dc:type
           rdf:resource="http://purl.org/dc/dcmitype/StillImage" />
        <dc:title></dc:title>
      </cc:Work>
    </rdf:RDF>
  </metadata>
  <g
     inkscape:label="Calque 1"
     inkscape:groupmode="layer"
     id="layer1"
     transform="translate(985.48648,-617.85051)">
    <path
       style="fill:#ffffff"
       d="m -642.15067,1124.6543 c -0.13722,-2.1382 -1.06362,-15.2628 -1.06362,-35.731 l 0,-32.9158 -2.75,-0.5942 c -28.04229,-6.0586 -47.8369,-18.057 -65.80869,-36.984 -15.65977,-16.4921 -24.27931,-32.09616 -30.09455,-54.48044 -2.05216,-7.89926 -2.6761,-13.39768 -3.31685,-29.2295 -0.67393,-16.65182 -1.175,-20.81454 -3.43059,-28.5 -9.80685,-33.41492 -23.80997,-61.06579 -45.56076,-89.96526 -22.50562,-29.90237 -45.52909,-52.11016 -83.53856,-80.57892 -30.93205,-23.16784 -51.20243,-41.71469 -66.39106,-60.74604 -4.06508,-5.09355 -7.50649,-9.13697 -7.64758,-8.98539 -0.1411,0.15159 0.16322,2.92434 0.67626,6.16167 1.9161,12.09077 7.70676,25.83748 18.70682,44.40897 21.07993,35.58942 46.44347,62.24196 75.13983,78.95852 11.91316,6.9398 12.86301,7.7559 15.25755,13.10914 4.73547,10.58661 -3.58228,23.13731 -15.33384,23.13731 -8.19203,0 -45.66405,-20.73077 -68.40798,-37.84557 -3.3,-2.48325 -9.65515,-7.58387 -14.12256,-11.33472 -4.46741,-3.75084 -8.40491,-6.81971 -8.75,-6.81971 -1.27118,0 -0.57228,6.20689 1.29812,11.52852 3.00829,8.55914 10.35854,18.6536 23.42695,32.1734 15.98946,16.54174 24.70358,23.64448 39.66667,32.33162 18.02112,10.46255 32.60947,20.62683 34.85952,24.28801 3.15464,5.1331 3.58697,9.8373 1.36559,14.8591 -3.4616,7.82553 -10.56177,11.8409 -18.62414,10.53256 -5.40848,-0.87767 -23.78641,-11.50561 -44.81109,-25.91419 -4.10769,-2.81507 -22.72114,-11.22027 -23.38262,-10.55879 -0.78632,0.78632 15.16194,19.22051 22.63888,26.1677 20.915,19.43315 44.57929,33.37814 72.1406,42.51131 7.62193,2.52573 10.35048,3.95044 12.70792,6.63541 9.09655,10.3604 3.67588,25.40734 -10.0709,27.95524 -7.50736,1.39145 -41.14051,-12.21213 -61.67488,-24.9456 -31.14298,-19.31193 -63.53741,-52.36289 -71.25186,-72.69591 -5.11263,-13.47538 -2.32085,-27.08635 7.23312,-35.2642 l 4.22929,-3.62011 -2.17437,-2.74204 c -4.99651,-6.30095 -13.32605,-19.26642 -15.67811,-24.40399 -3.40792,-7.44388 -6.52941,-20.02698 -6.51135,-26.248 0.02,-6.90147 2.55755,-17.18456 5.46465,-22.14515 4.35009,-7.42286 9.73907,-11.66865 18.74588,-14.76923 1.50113,-0.51677 1.13923,-1.58524 -2.78528,-8.22328 -16.06705,-27.17626 -23.58274,-49.03256 -23.71055,-68.95238 -0.16133,-25.14574 11.35998,-44.18808 27.91807,-46.14281 11.11262,-1.31187 17.15759,2.83761 27.70926,19.02065 16.38451,25.12881 34.72354,43.34648 71.44859,70.97576 48.12436,36.2053 76.97668,65.53087 103.10691,104.79815 l 9.74993,14.65174 1.10917,-8.15174 c 3.32315,-24.42315 15.50381,-49.49859 32.48057,-66.86541 46.34696,-47.41182 120.76961,-49.23905 168.70791,-4.14213 18.74801,17.63678 32.13409,42.31174 35.9978,66.35579 2.20032,13.69272 1.38725,13.55511 9.14826,1.54834 25.42022,-39.32668 57.70452,-72.46104 105.58524,-108.36538 21.98349,-16.48477 31.75182,-24.84751 45.34761,-38.82241 12.84017,-13.1982 17.67911,-19.2224 27.20712,-33.87123 7.39635,-11.3715 8.57529,-12.60154 14.77206,-15.41237 10.97672,-4.97899 23.76276,-0.0597 31.5919,12.15452 1.3155,2.05231 3.55789,7.20514 4.98309,11.45075 7.74973,23.08605 1.63825,51.08525 -18.91272,86.64696 -3.12414,5.40605 -5.68025,10.1873 -5.68025,10.625 0,0.4377 1.2375,1.0511 2.75,1.36312 7.56904,1.56141 15.75391,9.74365 19.68901,19.6827 2.36652,5.97722 3.15367,19.30005 1.60752,27.20812 -2.23051,11.40843 -10.03099,26.60487 -19.74542,38.46689 l -3.41914,4.17501 4.6433,4.28004 c 7.2759,6.70669 8.95907,10.71774 8.96756,21.36994 0.007,8.27968 -0.28043,9.60027 -3.58623,16.5 -9.48858,19.8042 -36.02844,47.30779 -62.9066,65.19088 -14.2687,9.49353 -36.99672,20.60566 -52.82684,25.82799 -12.10129,3.99219 -13.40028,4.22966 -17.0899,3.12422 -10.86401,-3.25494 -16.21904,-14.77332 -11.23165,-24.15869 2.55181,-4.80205 6.37209,-7.14468 17.8206,-10.92777 20.14851,-6.65795 43.26753,-19.453 59.82779,-33.11125 12.06088,-9.94734 33.59698,-33.18174 32.12278,-34.65593 -1.13797,-1.13797 -20.51408,8.98794 -33.12278,17.30987 -18.8978,12.47284 -32.32932,19.40068 -37.61357,19.40068 -8.55476,0 -15.70495,-6.21029 -16.63333,-14.44687 -0.65209,-5.78531 0.14493,-8.68427 3.47595,-12.64297 3.13678,-3.72786 21.70299,-16.23376 36.08074,-24.3034 15.78807,-8.86121 38.69674,-29.85775 51.95804,-47.62124 6.20405,-8.31031 10.41904,-17.9714 10.04314,-23.01968 l -0.31097,-4.17641 -10.21652,8.42045 c -20.09699,16.5639 -38.48851,28.6149 -60.89028,39.89821 -16.51873,8.32014 -20.64433,9.17983 -27.38513,5.70648 -6.74301,-3.47449 -9.27147,-7.88121 -8.81149,-15.35711 0.50349,-8.18307 2.81649,-11.10694 13.50351,-17.06981 33.30236,-18.58121 64.92678,-53.67329 85.78985,-95.19683 2.95432,-5.87995 6.4657,-14.06582 7.80307,-18.19082 2.71774,-8.38263 4.25491,-17.02057 3.01826,-16.96076 -0.4462,0.0216 -3.28627,3.28266 -6.31127,7.24686 -7.1207,9.33151 -29.86442,32.20265 -42,42.23528 -5.225,4.31958 -16.25,12.86367 -24.5,18.98688 -8.25,6.12322 -19.24434,14.66696 -24.43188,18.9861 -54.55489,45.42244 -89.68048,96.58949 -105.7231,154.00564 -2.07479,7.42564 -2.65643,12.4111 -3.32499,28.5 -0.66259,15.94524 -1.27328,21.23181 -3.34999,29 -9.76321,36.52044 -34.79744,65.61584 -69.26269,80.49884 -6.85091,2.9584 -17.29058,7.3347 -26.62046,9.2219 l -2.71312,0.5488 -0.28688,34.7402 -0.28689,34.7403 c -4.80175,17.6544 -30.42903,17.0538 -33.43638,-0.8151 z m -1.06362,-238.93494 c 0,-73.7 -0.1776,-134 -0.39466,-134 -0.21707,0 -3.47957,0.95197 -7.25,2.1155 -19.6145,6.05287 -36.60503,19.28202 -47.76898,37.19385 -4.64163,7.44719 -9.73321,19.91675 -11.00043,26.94065 l -0.67656,3.75 11.58516,0 c 9.56749,0 12.26018,0.34437 15.46109,1.97736 4.59552,2.34446 7.43113,6.03149 8.93557,11.61855 2.10951,7.83411 -2.75279,17.52434 -10.20629,20.34047 -1.5483,0.58499 -8.4108,1.06362 -15.25,1.06362 l -12.4349,0 0,6.42442 0,6.42441 13.83184,0.32559 c 13.23828,0.31161 13.98321,0.44117 17.35927,3.01913 9.39337,7.17279 9.39337,21.44011 0,28.6129 -3.37606,2.57796 -4.12099,2.70752 -17.35927,3.01913 l -13.83184,0.32559 0.0136,4.17441 c 0.0291,8.88642 -0.28951,8.67442 13.03793,8.67442 12.847,0 15.99844,0.74387 20.22198,4.77323 8.28396,7.90311 5.97681,22.99745 -4.31789,28.24941 -3.19282,1.62886 -5.89306,1.97736 -15.32085,1.97736 l -11.44491,0 1.49212,5.71394 c 5.73214,21.95076 23.1532,43.1121 44.31802,53.8331 4.76563,2.414 18.05993,7.2776 20.25,7.4082 0.4125,0.025 0.75,-60.25524 0.75,-133.95524 z m 45,131.24664 c 20.66165,-6.8124 39.49777,-23.37735 49.7446,-43.74664 2.946,-5.85625 5.32164,-12.20716 6.63961,-17.75 l 0.65389,-2.75 -10.95395,0 c -11.99938,0 -15.14,-0.77697 -19.45731,-4.81362 -5.95711,-5.56985 -7.23902,-13.82314 -3.30307,-21.26613 3.71563,-7.02636 6.96997,-8.33539 22.17623,-8.92025 l 13,-0.5 0.29772,-6.25 0.29771,-6.25 -12.39043,0 c -11.00607,0 -12.87696,-0.25728 -16.74498,-2.30274 -11.51762,-6.09066 -11.82238,-23.59134 -0.52611,-30.21139 3.91374,-2.29361 5.22111,-2.48587 16.90395,-2.48587 l 12.66214,0 0,-6.5 0,-6.5 -12.75,-0.0165 c -15.18844,-0.0196 -19.03125,-1.50993 -22.92498,-8.89083 -3.79082,-7.18584 -2.87333,-14.73115 2.4886,-20.46588 4.30747,-4.60692 7.96046,-5.62679 20.15426,-5.62679 9.31971,0 11.03212,-0.24171 11.03212,-1.55718 0,-4.14214 -2.68616,-11.94737 -7.55159,-21.94282 -7.86205,-16.15162 -18.38085,-27.60539 -33.44841,-36.42146 -6.88204,-4.0267 -17.33994,-8.41903 -22.75,-9.55502 l -3.25,-0.68243 0,134.09851 0,134.09854 2.75,-0.6539 c 1.5125,-0.3597 4.775,-1.3216 7.25,-2.1376 z"
       id="path3347"
       inkscape:connector-curvature="0"
       sodipodi:nodetypes="csccssssssssssssssssssssssssssssssscssssssssssscssssssssssssssssscscssssssssssssssscssssssscsssssssssccccssssscssssscccssssccsssscsscscsscsssscccsssscccssssssssccccc" />
  </g>
</svg>
